<svg width="1440" height="263" viewBox="0 0 1440 263" fill="none" xmlns="http://www.w3.org/2000/svg">
<g opacity="0.1">
<path d="M1323.72 118.436H1409.37C1406.12 96.7522 1388.77 81.5735 1366.01 81.5735C1343.78 81.5735 1327.52 96.4811 1323.72 118.436ZM1293.09 129.549C1293.09 87.2655 1323.99 56.9082 1366.82 56.9082C1409.64 56.9082 1440 87.2655 1440 129.82C1440 133.073 1439.73 137.138 1439.46 140.391L1323.45 140.12C1326.97 164.514 1344.05 180.777 1366.55 180.777C1384.98 180.777 1402.05 169.935 1407.2 154.756L1434.85 158.822C1426.99 185.927 1398.53 205.442 1367.09 205.442C1323.99 205.442 1293.09 173.73 1293.09 129.549Z" fill="#008151"/>
<path d="M1200.38 177.795C1226.67 177.795 1245.92 158.009 1245.92 131.175C1245.92 103.799 1226.4 84.555 1200.38 84.555C1174.09 84.555 1155.12 104.341 1155.12 131.175C1155.12 158.009 1174.09 177.795 1200.38 177.795ZM1275.19 131.175C1275.19 174.272 1246.19 205.442 1206.07 205.442C1185.47 205.442 1167.86 196.498 1156.2 181.319V262.362H1126.66V62.3291H1155.39V81.5735C1167.31 66.1238 1184.93 56.9082 1206.07 56.9082C1245.92 56.9082 1275.19 88.0786 1275.19 131.175Z" fill="#008151"/>
<path d="M1020.71 179.151C1047 179.151 1065.97 159.093 1065.97 131.175C1065.97 103.257 1047 83.1998 1020.71 83.1998C994.418 83.1998 975.174 103.257 975.174 131.175C975.174 158.822 994.418 179.151 1020.71 179.151ZM1066.25 82.9287V62.3291H1095.79V200.021H1066.25V179.422C1054.59 195.684 1036.43 205.442 1015.02 205.442C974.631 205.442 945.9 174.272 945.9 131.175C945.9 88.0786 974.631 56.9082 1015.02 56.9082C1036.43 56.9082 1054.59 66.6659 1066.25 82.9287Z" fill="#008151"/>
<path d="M859.137 56.9082C894.102 56.9082 922.833 78.863 927.712 109.22L899.523 112.744C895.186 94.8548 878.381 82.1156 859.408 82.1156C835.014 82.1156 815.769 102.715 815.769 131.175C816.04 159.635 834.743 180.235 859.408 180.235C878.923 180.235 894.915 167.496 899.794 149.877L927.983 153.401C922.291 183.487 893.289 205.442 859.408 205.442C817.124 205.442 786.496 174.272 786.496 131.175C786.496 88.0786 817.124 56.9082 859.137 56.9082Z" fill="#008151"/>
<path d="M767.898 158.56C767.898 185.936 742.962 205.723 707.997 205.723C671.676 205.723 645.385 183.768 645.385 153.41H672.489C672.489 169.673 687.397 181.599 707.997 181.599C726.428 181.599 739.709 173.197 739.438 161.813C739.438 147.447 718.025 143.924 704.202 142.026C671.947 137.148 647.553 133.082 647.553 100.285C647.553 75.0777 671.676 56.6465 702.847 56.6465C738.354 56.6465 764.375 76.4329 764.375 103.809H736.999C736.728 90.2564 722.362 80.7697 702.576 80.7697C687.668 80.7697 675.2 88.9011 675.2 100.014C675.2 110.314 685.5 113.566 707.726 117.361C734.017 121.698 767.898 127.39 767.898 158.56Z" fill="#008151"/>
<path d="M545.112 84.5668C518.82 84.5668 499.576 104.353 499.576 131.187C499.576 158.563 519.091 177.807 545.112 177.807C571.403 177.807 590.377 158.021 590.377 131.187C590.377 104.353 571.403 84.5668 545.112 84.5668ZM470.303 131.187C470.303 88.0904 499.305 56.92 539.42 56.92C560.019 56.92 577.637 65.8645 589.293 81.0431V0H618.837V200.033H590.106V180.789C578.18 196.238 560.562 205.454 539.42 205.454C499.576 205.454 470.303 174.283 470.303 131.187Z" fill="#008151"/>
<path d="M319.25 62.3291H348.252V79.9472C358.01 65.5817 375.086 56.9082 392.975 56.9082C426.585 56.9082 448.54 81.8445 448.54 115.997V200.021H419.266V118.165C419.266 97.8364 407.069 83.1998 386.47 83.1998C365.87 83.1998 348.794 98.9205 348.794 120.875V200.021H319.25V62.3291Z" fill="#008151"/>
<path d="M213.305 179.151C239.597 179.151 258.57 159.093 258.57 131.175C258.57 103.257 239.597 83.1998 213.305 83.1998C187.014 83.1998 167.769 103.257 167.769 131.175C167.769 158.822 187.014 179.151 213.305 179.151ZM258.841 82.9287V62.3291H288.385V200.021H258.841V179.422C247.186 195.684 229.026 205.442 207.613 205.442C167.227 205.442 138.496 174.272 138.496 131.175C138.496 88.0786 167.227 56.9082 207.613 56.9082C229.026 56.9082 247.186 66.6659 258.841 82.9287Z" fill="#008151"/>
<path d="M123.055 200.019H0V8.11719H32.5257V171.83H123.055V200.019Z" fill="#008151"/>
</g>
</svg>
