<svg width="16" height="16" viewBox="0 0 16 16" fill="none" xmlns="http://www.w3.org/2000/svg">
<path d="M15.4685 7.73425C15.4537 7.2025 15.2915 6.68475 14.9993 6.23942C14.7079 5.79493 14.298 5.43933 13.8156 5.21379C13.9992 4.71414 14.0379 4.17334 13.9309 3.65229C13.823 3.13041 13.5712 2.6497 13.2049 2.26364C12.818 1.89734 12.3381 1.64629 11.8162 1.53763C11.2952 1.43062 10.7544 1.46931 10.2547 1.65287C10.03 1.16969 9.67522 0.758938 9.2299 0.467545C8.78458 0.176153 8.26683 0.0131703 7.73425 0C7.2025 0.0139934 6.68639 0.175329 6.24189 0.467545C5.7974 0.759761 5.44427 1.17051 5.2212 1.65287C4.72073 1.46931 4.17827 1.42898 3.65558 1.53763C3.13288 1.64464 2.65134 1.89652 2.26447 2.26364C1.89817 2.65052 1.64793 3.13206 1.54175 3.65311C1.43474 4.17416 1.4759 4.71496 1.66028 5.21379C1.17709 5.43933 0.765523 5.7941 0.472484 6.2386C0.179445 6.6831 0.0156397 7.20168 0 7.73425C0.0164629 8.26683 0.179445 8.78458 0.472484 9.2299C0.765523 9.6744 1.17709 10.03 1.66028 10.2547C1.4759 10.7535 1.43474 11.2943 1.54175 11.8154C1.64876 12.3373 1.89817 12.818 2.26364 13.2049C2.65052 13.5695 3.13124 13.8197 3.65229 13.9276C4.17334 14.0362 4.71414 13.9967 5.21379 13.8156C5.43933 14.298 5.7941 14.7079 6.23942 15.0001C6.68392 15.2915 7.2025 15.4537 7.73425 15.4685C8.26683 15.4553 8.78458 15.2932 9.2299 15.0018C9.67522 14.7104 10.03 14.2988 10.2547 13.8165C10.7519 14.0132 11.2968 14.0601 11.8212 13.9515C12.3447 13.8428 12.8254 13.5835 13.204 13.2049C13.5827 12.8262 13.8428 12.3455 13.9515 11.8212C14.0601 11.2968 14.0132 10.7519 13.8156 10.2547C14.298 10.0292 14.7079 9.6744 15.0001 9.22908C15.2915 8.78458 15.4537 8.266 15.4685 7.73425Z" fill="#008151"/>
<path fill-rule="evenodd" clip-rule="evenodd" d="M4.32328 7.52954C4.02687 7.82801 4.02774 8.31002 4.32523 8.60742L5.90176 10.1835C6.3045 10.5861 6.96168 10.5716 7.34627 10.1517L10.8566 6.31818C11.1406 6.00813 11.1206 5.52695 10.812 5.24148V5.24148C10.5014 4.95419 10.0165 4.97403 9.73043 5.28572L6.5874 8.71024L5.40484 7.52766C5.10596 7.22878 4.62112 7.22962 4.32328 7.52954V7.52954Z" fill="white"/>
</svg>
