<svg width="48" height="48" viewBox="0 0 48 48" fill="none" xmlns="http://www.w3.org/2000/svg">
<rect width="48" height="48" fill="#D4F5DC"/>
<path d="M24.7055 20.6786C28.2328 24.2605 27.7413 28.3414 24.7055 31.4242C22.0022 34.1692 17.2811 33.9769 13.4178 30.7078C8.81909 26.8164 8.47945 19.6041 11.3014 15.6641C13.4178 18.5295 21.1781 17.0968 24.7055 20.6786Z" stroke="#008151" stroke-width="2" stroke-linecap="round" stroke-linejoin="round"/>
<path d="M28.8892 24.5023C26.4277 27.0018 26.7707 29.8496 28.8892 32.0009C30.7757 33.9164 34.0702 33.7822 36.7662 31.5009C39.9753 28.7854 40.2123 23.7524 38.2431 21.0029C36.7662 23.0026 31.3508 22.0027 28.8892 24.5023Z" fill="#94E3C6" stroke="#008151" stroke-width="2" stroke-linecap="round" stroke-linejoin="round"/>
<path d="M16.9446 23.1631C21.2637 25.372 24.863 28.3172 24.863 31.2624" stroke="#008151" stroke-width="2" stroke-linecap="round" stroke-linejoin="round"/>
</svg>
