<svg width="48" height="48" viewBox="0 0 48 48" fill="none" xmlns="http://www.w3.org/2000/svg">
<rect width="48" height="48" fill="#D4F5DC"/>
<path d="M32.3804 24.7545L36.676 12.0977H40.2813" stroke="#008151" stroke-width="2" stroke-linecap="round" stroke-linejoin="round"/>
<path d="M19.4243 20.625H29.4903C31.1472 20.625 32.4903 21.9681 32.4903 23.625V26.8161C32.4903 28.473 31.1472 29.8161 29.4903 29.8161H19.4246C17.7679 29.8161 16.4248 28.4732 16.4246 26.8164L16.4243 23.6253C16.4241 21.9684 17.7673 20.625 19.4243 20.625Z" fill="#D4F5DC" stroke="#008151" stroke-width="2"/>
<path d="M14.6104 26.9839L32.2608 24.9302C34.2429 24.6996 35.9828 26.2488 35.9828 28.2442C35.9828 30.0868 34.4891 31.5806 32.6464 31.5806H14.877C13.6034 31.5806 12.5709 30.5481 12.5709 29.2745C12.5709 28.104 13.4478 27.1192 14.6104 26.9839Z" fill="#94E3C6" stroke="#008151" stroke-width="2"/>
<circle cx="32.3802" cy="30.1623" r="5.27066" fill="#D4F5DC" stroke="#008151" stroke-width="2"/>
<circle cx="11.5713" cy="32.5801" r="2.85256" fill="#D4F5DC" stroke="#008151" stroke-width="2"/>
</svg>
