<svg width="48" height="48" viewBox="0 0 48 48" fill="none" xmlns="http://www.w3.org/2000/svg">
<rect width="48" height="48" fill="#D4F5DC"/>
<path d="M24.0006 25.4402C15.3472 25.4402 14.9026 17.5634 18.2406 12C19.2007 12 21.6968 12.576 24.0008 14.88C26.3048 12.576 28.8009 12 29.761 12C33.0991 17.5634 32.6542 25.4402 24.0006 25.4402Z" stroke="#008151" stroke-width="2" stroke-linecap="round" stroke-linejoin="round"/>
<path d="M24 25.4395V35.4295" stroke="#008151" stroke-width="2" stroke-linecap="round" stroke-linejoin="round"/>
<path d="M23.9999 35.4194C24.3332 32.4193 29.3617 27.2776 36 30.4192C35.6667 33.086 30.479 37.609 23.9999 35.4194Z" fill="#94E3C6" stroke="#008151" stroke-width="2" stroke-linecap="round" stroke-linejoin="round"/>
<path d="M24 35.4193C23.6667 32.4193 18.6382 27.2777 11.9999 30.4192C12.3332 33.0861 17.5208 37.6091 24 35.4193Z" fill="#94E3C6" stroke="#008151" stroke-width="2" stroke-linecap="round" stroke-linejoin="round"/>
</svg>
