<svg width="219" height="37" viewBox="0 0 219 37" fill="none" xmlns="http://www.w3.org/2000/svg">
<path d="M15.9849 19.0684C15.024 22.7691 14.5251 28.1314 14.8067 35.4221" stroke="#008151" stroke-width="1.50765" stroke-linecap="round"/>
<path d="M7.70571 12.249C5.27061 9.33715 3.69165 5.55247 5.60462 3.30952C7.51759 1.06657 12.0777 2.8744 14.5297 10.0842C16.4314 15.6757 15.5304 21.9331 14.7853 24.6041C14.7705 24.657 14.6942 24.6464 14.6881 24.5917C13.8896 17.4622 10.7141 15.8465 7.70571 12.249Z" fill="#008151" stroke="#008151" stroke-width="0.50255" stroke-linecap="round"/>
<path d="M26.458 12.1368C29.7557 10.257 32.5556 7.26073 31.545 4.49142C30.5344 1.72212 25.6301 1.82595 20.8175 7.72785C17.0851 12.3049 15.747 18.4837 15.5138 21.2468C15.5092 21.3016 15.5844 21.3182 15.6092 21.2691C18.8442 14.8658 22.3837 14.4591 26.458 12.1368Z" fill="#008151" stroke="#008151" stroke-width="0.50255" stroke-linecap="round"/>
<path d="M22.6604 25.138C25.1326 23.6177 27.1959 21.2568 26.3532 19.1664C25.5105 17.0759 21.7655 17.28 18.2381 21.9124C15.5271 25.4726 14.6528 30.1749 14.5323 32.32C14.5292 32.3749 14.6045 32.3884 14.6278 32.3386C16.9313 27.4142 19.6173 27.0095 22.6604 25.138Z" fill="#008151" stroke="#008151" stroke-width="0.50255" stroke-linecap="round"/>
<path d="M7.44275 26.3019C5.226 24.4286 3.53939 21.7855 4.6855 19.8447C5.83161 17.904 9.50386 18.6664 12.2981 23.7746C14.4457 27.7005 14.6061 32.4807 14.4042 34.6197C14.3991 34.6744 14.3226 34.6764 14.307 34.6237C12.7666 29.41 10.1715 28.6078 7.44275 26.3019Z" fill="#008151" stroke="#008151" stroke-width="0.50255" stroke-linecap="round"/>
<path d="M49.7657 26.4158C53.907 26.4158 57.2142 23.4364 57.244 19.593H49.6167V16.9711H60.7597C61.3258 24.2408 56.7077 29.5144 49.7061 29.5144C43.0322 29.5144 38.2354 24.7771 38.2354 18.2224C38.2354 11.6677 43.0322 6.93049 49.7061 6.93049C54.6519 6.93049 58.8529 10.0589 59.8361 14.379L56.4693 15.0047C55.6947 12.1147 52.8345 10.0589 49.7061 10.0589C45.088 10.0589 41.8107 13.4256 41.8107 18.2224C41.8107 22.9597 45.1476 26.4158 49.7657 26.4158ZM71.25 26.4754C74.14 26.4754 76.2256 24.2706 76.2256 21.2018C76.2256 18.1331 74.14 15.9283 71.25 15.9283C68.36 15.9283 66.2446 18.1331 66.2446 21.2018C66.2446 24.2408 68.36 26.4754 71.25 26.4754ZM76.2554 15.8985V13.6342H79.5029V28.7695H76.2554V26.5052C74.9742 28.2928 72.978 29.3654 70.6243 29.3654C66.185 29.3654 63.0268 25.9391 63.0268 21.2018C63.0268 16.4646 66.185 13.0383 70.6243 13.0383C72.978 13.0383 74.9742 14.1109 76.2554 15.8985ZM82.895 13.6342H86.0234V15.5708C86.947 14.0215 88.4069 13.0979 90.135 13.0979C90.7309 13.0979 91.4161 13.2468 92.0716 13.4852V16.3752C91.2374 16.0177 90.3138 15.8985 89.7179 15.8985C87.5727 15.8985 86.1426 17.8053 86.1426 20.4868V28.7695H82.895V13.6342ZM100.769 16.0773C97.8793 16.0773 95.764 18.2522 95.764 21.2018C95.764 24.211 97.9091 26.3264 100.769 26.3264C103.659 26.3264 105.745 24.1515 105.745 21.2018C105.745 18.2522 103.659 16.0773 100.769 16.0773ZM92.5462 21.2018C92.5462 16.4646 95.7342 13.0383 100.144 13.0383C102.408 13.0383 104.345 14.0215 105.626 15.6899V6.78152H108.873V28.7695H105.715V26.6542C104.404 28.3524 102.468 29.3654 100.144 29.3654C95.764 29.3654 92.5462 25.9391 92.5462 21.2018ZM114.921 19.8015H124.336C123.978 17.418 122.071 15.7495 119.568 15.7495C117.125 15.7495 115.338 17.3882 114.921 19.8015ZM111.554 21.0231C111.554 16.3752 114.95 13.0383 119.658 13.0383C124.365 13.0383 127.702 16.3752 127.702 21.0529C127.702 21.4104 127.672 21.8573 127.643 22.2148L114.891 22.185C115.278 24.8665 117.155 26.6542 119.628 26.6542C121.654 26.6542 123.531 25.4624 124.097 23.7939L127.136 24.2408C126.272 27.2202 123.144 29.3654 119.688 29.3654C114.95 29.3654 111.554 25.8795 111.554 21.0231ZM130.375 13.6342H133.563V15.5708C134.635 13.9917 136.512 13.0383 138.479 13.0383C142.173 13.0383 144.586 15.7793 144.586 19.5334V28.7695H141.369V19.7717C141.369 17.5372 140.028 15.9283 137.764 15.9283C135.499 15.9283 133.622 17.6563 133.622 20.0697V28.7695H130.375V13.6342ZM146.354 7.67534H150.108L156.335 26.1477L162.532 7.67534H166.286L159.017 28.7695H153.624L146.354 7.67534ZM168.749 13.6342H171.967V28.7695H168.749V13.6342ZM170.358 11.191C169.166 11.191 168.332 10.3568 168.332 9.19484C168.332 8.06266 169.166 7.25822 170.358 7.25822C171.52 7.25822 172.354 8.06266 172.354 9.19484C172.354 10.3568 171.52 11.191 170.358 11.191ZM178.411 19.8015H187.826C187.468 17.418 185.562 15.7495 183.059 15.7495C180.616 15.7495 178.828 17.3882 178.411 19.8015ZM175.044 21.0231C175.044 16.3752 178.441 13.0383 183.148 13.0383C187.856 13.0383 191.193 16.3752 191.193 21.0529C191.193 21.4104 191.163 21.8573 191.133 22.2148L178.381 22.185C178.769 24.8665 180.646 26.6542 183.119 26.6542C185.144 26.6542 187.022 25.4624 187.588 23.7939L190.627 24.2408C189.763 27.2202 186.634 29.3654 183.178 29.3654C178.441 29.3654 175.044 25.8795 175.044 21.0231ZM201.969 28.7695H197.709L192.822 13.6342H196.189L199.973 25.5816L203.31 13.6342H206.736L210.192 25.6412L213.916 13.6342H217.253L212.308 28.7695H208.047L205.038 17.3882L201.969 28.7695Z" fill="white"/>
</svg>
