<svg width="48" height="48" viewBox="0 0 48 48" fill="none" xmlns="http://www.w3.org/2000/svg">
<rect width="48" height="48" fill="#D4F5DC"/>
<path d="M19.002 12.7289C22.1953 15.8301 22.6366 20.8491 22.3349 23.8518C22.2545 24.6523 21.6118 25.2587 20.8132 25.3562C18.3907 25.652 16.0236 25.652 13.6011 25.3562C12.8025 25.2587 12.1598 24.6523 12.0794 23.8518C11.7777 20.8491 12.219 15.8301 15.4122 12.7289C16.4129 11.757 18.0014 11.757 19.002 12.7289Z" fill="#94E3C6" stroke="#008151" stroke-width="2" stroke-linecap="round" stroke-linejoin="round"/>
<path d="M17.2072 21.2275V30.0912" stroke="#008151" stroke-width="2" stroke-linecap="round" stroke-linejoin="round"/>
<path d="M17.2072 35.9999C19.0981 35.9999 20.1618 34.9362 20.1618 33.0454C20.1618 31.1543 19.0981 30.0908 17.2072 30.0908C15.3163 30.0908 14.2527 31.1543 14.2527 33.0454C14.2527 34.9362 15.3163 35.9999 17.2072 35.9999Z" stroke="#008151" stroke-width="2" stroke-linecap="round" stroke-linejoin="round"/>
<path d="M25.2931 36.0002C24.293 32.3335 23.2931 24 30.2931 24C37.2933 24 36.2932 32.3335 35.293 36.0002" stroke="#008151" stroke-width="2" stroke-linecap="round" stroke-linejoin="round"/>
<path d="M30.2931 36.0013V18.001" stroke="#008151" stroke-width="2" stroke-linecap="round" stroke-linejoin="round"/>
<path d="M30.293 18.0001C32.2131 18.0001 33.2931 16.9201 33.2931 15.0001C33.2931 13.08 32.2131 12 30.293 12C28.373 12 27.293 13.08 27.293 15.0001C27.293 16.9201 28.373 18.0001 30.293 18.0001Z" stroke="#008151" stroke-width="2" stroke-linecap="round" stroke-linejoin="round"/>
</svg>
