<svg width="48" height="48" viewBox="0 0 48 48" fill="none" xmlns="http://www.w3.org/2000/svg">
<path d="M0 24C0 10.7452 10.7452 0 24 0V0C37.2548 0 48 10.7452 48 24V24C48 37.2548 37.2548 48 24 48V48C10.7452 48 0 37.2548 0 24V24Z" fill="#D4F5DC"/>
<rect width="48" height="48" fill="#D4F5DC"/>
<path d="M23.9992 20.745C21.0752 17.1572 17.9879 19.7065 17.9473 22.4545C17.9473 26.5456 22.8422 29.9036 23.9992 29.9036C25.1563 29.9036 30.0512 26.5456 30.0512 22.4545C30.0106 19.7065 26.9233 17.1572 23.9992 20.745Z" fill="#94E3C6" stroke="#008151" stroke-width="2" stroke-linecap="round" stroke-linejoin="round"/>
<path d="M24 36C31.68 36 36 31.68 36 24C36 16.32 31.68 12 24 12C16.32 12 12 16.32 12 24C12 31.68 16.32 36 24 36Z" stroke="#008151" stroke-width="2" stroke-linecap="round" stroke-linejoin="round"/>
</svg>
