<svg width="184" height="31" viewBox="0 0 184 31" fill="none" xmlns="http://www.w3.org/2000/svg">
<path d="M13.3714 15.9507C12.5675 19.0465 12.1501 23.5321 12.3857 29.6311" stroke="#008151" stroke-width="1.26119" stroke-linecap="round"/>
<path d="M6.44731 10.2462C4.41028 7.81035 3.08943 4.64436 4.68969 2.76807C6.28995 0.891778 10.1046 2.40408 12.1558 8.43531C13.7466 13.1127 12.9929 18.3472 12.3696 20.5816C12.3572 20.6259 12.2934 20.6169 12.2882 20.5712C11.6203 14.6072 8.96393 13.2556 6.44731 10.2462Z" fill="#008151" stroke="#008151" stroke-width="0.420397" stroke-linecap="round"/>
<path d="M22.1329 10.1524C24.8916 8.57999 27.2337 6.07349 26.3884 3.75689C25.543 1.44029 21.4404 1.52715 17.4145 6.46425C14.2923 10.2931 13.1729 15.4618 12.9778 17.7732C12.9739 17.8191 13.0369 17.833 13.0576 17.7919C15.7638 12.4354 18.7247 12.0951 22.1329 10.1524Z" fill="#008151" stroke="#008151" stroke-width="0.420397" stroke-linecap="round"/>
<path d="M18.9559 21.0282C21.0239 19.7564 22.7499 17.7815 22.045 16.0328C21.3401 14.284 18.2073 14.4548 15.2564 18.3299C12.9886 21.3081 12.2573 25.2417 12.1565 27.0362C12.1539 27.0821 12.2169 27.0933 12.2364 27.0517C14.1633 22.9323 16.4102 22.5937 18.9559 21.0282Z" fill="#008151" stroke="#008151" stroke-width="0.420397" stroke-linecap="round"/>
<path d="M6.22696 22.0021C4.37258 20.435 2.96168 18.224 3.92043 16.6005C4.87919 14.977 7.95113 15.6148 10.2886 19.8879C12.0851 23.172 12.2193 27.1708 12.0504 28.9601C12.0461 29.0059 11.9821 29.0076 11.9691 28.9635C10.6805 24.6021 8.50962 23.931 6.22696 22.0021Z" fill="#008151" stroke="#008151" stroke-width="0.420397" stroke-linecap="round"/>
<path d="M41.6305 22.3133C45.0949 22.3133 47.8614 19.8209 47.8863 16.6058H41.5059V14.4125H50.8273C51.3009 20.4938 47.4377 24.9053 41.5807 24.9053C35.9978 24.9053 31.9851 20.9425 31.9851 15.4593C31.9851 9.9761 35.9978 6.01325 41.5807 6.01325C45.718 6.01325 49.2322 8.63022 50.0547 12.2441L47.2383 12.7675C46.5903 10.35 44.1976 8.63022 41.5807 8.63022C37.7175 8.63022 34.9759 11.4466 34.9759 15.4593C34.9759 19.4221 37.7674 22.3133 41.6305 22.3133ZM59.6027 22.3631C62.0203 22.3631 63.765 20.5188 63.765 17.9516C63.765 15.3845 62.0203 13.5402 59.6027 13.5402C57.1852 13.5402 55.4156 15.3845 55.4156 17.9516C55.4156 20.4938 57.1852 22.3631 59.6027 22.3631ZM63.7899 13.5152V11.6211H66.5066V24.2822H63.7899V22.388C62.7182 23.8834 61.0483 24.7807 59.0794 24.7807C55.3657 24.7807 52.7238 21.9145 52.7238 17.9516C52.7238 13.9888 55.3657 11.1226 59.0794 11.1226C61.0483 11.1226 62.7182 12.0198 63.7899 13.5152ZM69.3442 11.6211H71.9611V13.2411C72.7338 11.9451 73.955 11.1724 75.4006 11.1724C75.8991 11.1724 76.4723 11.297 77.0206 11.4964V13.914C76.3228 13.6149 75.5501 13.5152 75.0517 13.5152C73.2572 13.5152 72.0608 15.1104 72.0608 17.3535V24.2822H69.3442V11.6211ZM84.2966 13.6648C81.879 13.6648 80.1094 15.4842 80.1094 17.9516C80.1094 20.4689 81.9039 22.2385 84.2966 22.2385C86.7141 22.2385 88.4588 20.4191 88.4588 17.9516C88.4588 15.4842 86.7141 13.6648 84.2966 13.6648ZM77.4176 17.9516C77.4176 13.9888 80.0845 11.1226 83.7732 11.1226C85.6674 11.1226 87.2874 11.9451 88.3591 13.3408V5.88863H91.0758V24.2822H88.4339V22.5127C87.3372 23.9333 85.7172 24.7807 83.7732 24.7807C80.1094 24.7807 77.4176 21.9145 77.4176 17.9516ZM96.1345 16.7802H104.01C103.711 14.7863 102.116 13.3906 100.023 13.3906C97.9788 13.3906 96.4834 14.7614 96.1345 16.7802ZM93.3181 17.8021C93.3181 13.914 96.1594 11.1226 100.097 11.1226C104.035 11.1226 106.827 13.914 106.827 17.827C106.827 18.1261 106.802 18.5 106.777 18.799L96.1095 18.7741C96.4336 21.0172 98.0037 22.5127 100.072 22.5127C101.767 22.5127 103.337 21.5157 103.811 20.12L106.353 20.4938C105.63 22.9862 103.013 24.7807 100.122 24.7807C96.1594 24.7807 93.3181 21.8646 93.3181 17.8021ZM109.062 11.6211H111.729V13.2411C112.626 11.9201 114.196 11.1226 115.841 11.1226C118.932 11.1226 120.951 13.4155 120.951 16.5559V24.2822H118.259V16.7553C118.259 14.886 117.137 13.5402 115.243 13.5402C113.349 13.5402 111.779 14.9857 111.779 17.0045V24.2822H109.062V11.6211ZM122.429 6.63634H125.57L130.779 22.089L135.963 6.63634H139.103L133.022 24.2822H128.511L122.429 6.63634ZM141.163 11.6211H143.855V24.2822H141.163V11.6211ZM142.509 9.57732C141.512 9.57732 140.814 8.87946 140.814 7.90744C140.814 6.96034 141.512 6.28741 142.509 6.28741C143.481 6.28741 144.179 6.96034 144.179 7.90744C144.179 8.87946 143.481 9.57732 142.509 9.57732ZM149.246 16.7802H157.122C156.823 14.7863 155.228 13.3906 153.134 13.3906C151.09 13.3906 149.595 14.7614 149.246 16.7802ZM146.43 17.8021C146.43 13.914 149.271 11.1226 153.209 11.1226C157.147 11.1226 159.938 13.914 159.938 17.827C159.938 18.1261 159.913 18.5 159.888 18.799L149.221 18.7741C149.545 21.0172 151.115 22.5127 153.184 22.5127C154.879 22.5127 156.449 21.5157 156.922 20.12L159.465 20.4938C158.742 22.9862 156.125 24.7807 153.234 24.7807C149.271 24.7807 146.43 21.8646 146.43 17.8021ZM168.953 24.2822H165.389L161.301 11.6211H164.118L167.283 21.6154L170.075 11.6211H172.941L175.832 21.6653L178.947 11.6211H181.739L177.601 24.2822H174.037L171.52 14.7614L168.953 24.2822Z" fill="#051F19"/>
</svg>
