<svg width="48" height="48" viewBox="0 0 48 48" fill="none" xmlns="http://www.w3.org/2000/svg">
<path d="M0 24C0 10.7452 10.7452 0 24 0V0C37.2548 0 48 10.7452 48 24V24C48 37.2548 37.2548 48 24 48V48C10.7452 48 0 37.2548 0 24V24Z" fill="#D4F5DC"/>
<rect width="48" height="48" fill="#D4F5DC"/>
<path d="M24.2055 20.1796C27.7328 23.7615 27.2413 27.8424 24.2055 30.9252C21.5022 33.6701 16.7811 33.4779 12.9178 30.2088C8.31909 26.3174 7.97945 19.1051 10.8014 15.165C12.9178 18.0305 20.6781 16.5978 24.2055 20.1796Z" stroke="#008151" stroke-width="2" stroke-linecap="round" stroke-linejoin="round"/>
<path d="M28.3891 24.0032C25.9276 26.5028 26.2706 29.3506 28.3891 31.5019C30.2755 33.4174 33.5701 33.2832 36.266 31.0019C39.4752 28.2864 39.7122 23.2534 37.743 20.5039C36.266 22.5035 30.8507 21.5037 28.3891 24.0032Z" fill="#94E3C6" stroke="#008151" stroke-width="2" stroke-linecap="round" stroke-linejoin="round"/>
<path d="M16.4453 22.6641C20.7644 24.873 24.3637 27.8182 24.3637 30.7634" stroke="#008151" stroke-width="2" stroke-linecap="round" stroke-linejoin="round"/>
</svg>
