<svg width="48" height="48" viewBox="0 0 48 48" fill="none" xmlns="http://www.w3.org/2000/svg">
<rect width="48" height="48" fill="#D4F5DC"/>
<path d="M28.3984 17.2183C27.9545 13.8618 25.7829 12 22.2329 12C18.683 12 16.5113 13.8617 16.0674 17.2181C15.8992 17.2073 15.7269 17.2019 15.5506 17.2019C12.1482 17.2019 10.2344 19.2126 10.2344 22.7872C10.2344 24.7891 10.8347 26.3005 11.9605 27.2429C13.7898 28.9594 17.3023 29.8852 22.2321 29.8852C27.1236 29.8852 30.6197 28.9737 32.4608 27.2827C33.6178 26.3433 34.2352 24.8175 34.2352 22.7872C34.2352 19.2126 32.3214 17.2019 28.919 17.2019C28.7414 17.2019 28.5679 17.2074 28.3984 17.2183Z" fill="#94E3C6" stroke="#008151" stroke-width="2" stroke-linecap="round" stroke-linejoin="round"/>
<path d="M22.2363 21.1367L22.2363 36.0001" stroke="#008151" stroke-width="2" stroke-linecap="round" stroke-linejoin="round"/>
<path d="M18.9023 23.8379L22.0459 26.9814" stroke="#008151" stroke-width="2" stroke-linecap="round" stroke-linejoin="round"/>
<path d="M32.6551 22.6285L26.8871 29.1714C26.6595 29.4296 26.5024 29.7421 26.4309 30.0788L25.7035 33.5065C25.5674 34.1404 26.2296 34.7412 26.8486 34.5453L30.2745 33.4691C30.5983 33.3674 30.891 33.1849 31.1248 32.9388L37.0843 26.6677C38.1348 25.5642 37.9506 23.7171 36.6811 22.5937C35.4414 21.4984 33.6392 21.5117 32.6551 22.6269V22.6285Z" fill="#D4F5DC" stroke="#008151" stroke-width="2" stroke-linecap="round" stroke-linejoin="round"/>
</svg>
