<svg width="48" height="48" viewBox="0 0 48 48" fill="none" xmlns="http://www.w3.org/2000/svg">
<rect width="48" height="48" fill="#D4F5DC"/>
<path fill-rule="evenodd" clip-rule="evenodd" d="M28.8569 28.7651C35.7663 28.4913 41.1257 26.5189 41.1257 24.1263C41.1257 21.5465 34.8942 19.4551 27.2073 19.4551C19.5204 19.4551 13.2889 21.5465 13.2889 24.1263C13.2889 25.1512 14.2724 26.099 15.9399 26.8693C11.355 27.3153 8.0033 28.7352 8.0033 30.4177C8.0033 32.4579 12.9313 34.1118 19.0102 34.1118C25.0891 34.1118 30.0171 32.4579 30.0171 30.4177C30.0171 29.8237 29.5993 29.2624 28.8569 28.7651Z" fill="#94E3C6"/>
<path d="M28.8569 28.7651L28.8173 27.7659C28.3847 27.783 28.0122 28.0766 27.8945 28.4933C27.7769 28.9099 27.9407 29.355 28.3004 29.5959L28.8569 28.7651ZM15.9399 26.8693L16.0367 27.8646C16.4861 27.8208 16.8504 27.4815 16.9258 27.0363C17.0013 26.5912 16.7691 26.1507 16.3592 25.9614L15.9399 26.8693ZM40.1257 24.1263C40.1257 24.3215 40.0195 24.6408 39.5278 25.0642C39.0398 25.4844 38.2731 25.9131 37.2312 26.3039C35.1557 27.0823 32.2004 27.6318 28.8173 27.7659L28.8965 29.7643C32.4228 29.6246 35.6019 29.051 37.9335 28.1765C39.095 27.7409 40.1 27.2108 40.8329 26.5797C41.562 25.9519 42.1257 25.1275 42.1257 24.1263H40.1257ZM27.2073 20.4551C30.9726 20.4551 34.3398 20.9688 36.7309 21.7713C37.9316 22.1743 38.8313 22.6319 39.4103 23.0914C39.9999 23.5592 40.1257 23.9161 40.1257 24.1263H42.1257C42.1257 23.0466 41.4725 22.1746 40.6535 21.5247C39.8239 20.8665 38.6853 20.3176 37.3673 19.8752C34.7209 18.9871 31.1289 18.4551 27.2073 18.4551V20.4551ZM14.2889 24.1263C14.2889 23.9161 14.4147 23.5592 15.0042 23.0914C15.5833 22.6319 16.4829 22.1743 17.6837 21.7713C20.0748 20.9688 23.442 20.4551 27.2073 20.4551V18.4551C23.2857 18.4551 19.6936 18.9871 17.0473 19.8752C15.7293 20.3176 14.5906 20.8665 13.7611 21.5247C12.942 22.1746 12.2889 23.0466 12.2889 24.1263H14.2889ZM16.3592 25.9614C15.588 25.6052 15.0415 25.2368 14.7016 24.8916C14.3655 24.5504 14.2889 24.2952 14.2889 24.1263H12.2889C12.2889 24.9824 12.704 25.7136 13.2766 26.295C13.8453 26.8725 14.6243 27.3631 15.5206 27.7771L16.3592 25.9614ZM9.0033 30.4177C9.0033 30.3543 9.03058 30.192 9.29719 29.9317C9.56645 29.6689 10.0115 29.3784 10.6551 29.0951C11.9373 28.5308 13.8087 28.0813 16.0367 27.8646L15.8431 25.874C13.4862 26.1033 11.3893 26.5868 9.84943 27.2645C9.08204 27.6023 8.40256 28.0101 7.90009 28.5006C7.39498 28.9937 7.0033 29.6399 7.0033 30.4177H9.0033ZM19.0102 33.1118C16.0489 33.1118 13.4096 32.7075 11.5453 32.0818C10.608 31.7673 9.92158 31.4149 9.48985 31.0723C9.0476 30.7214 9.0033 30.493 9.0033 30.4177H7.0033C7.0033 31.3626 7.57499 32.106 8.24669 32.639C8.92892 33.1803 9.85439 33.6239 10.909 33.9779C13.0284 34.6892 15.8926 35.1118 19.0102 35.1118V33.1118ZM29.0171 30.4177C29.0171 30.493 28.9728 30.7214 28.5305 31.0723C28.0988 31.4149 27.4123 31.7673 26.4751 32.0818C24.6108 32.7075 21.9715 33.1118 19.0102 33.1118V35.1118C22.1278 35.1118 24.992 34.6892 27.1114 33.9779C28.166 33.6239 29.0915 33.1803 29.7737 32.639C30.4454 32.106 31.0171 31.3626 31.0171 30.4177H29.0171ZM28.3004 29.5959C28.9466 30.0288 29.0171 30.3281 29.0171 30.4177H31.0171C31.0171 29.3193 30.252 28.4959 29.4134 27.9343L28.3004 29.5959Z" fill="#008151"/>
<path d="M17.3959 13.8887V13.8887C18.9725 15.1726 20.1363 16.8923 20.7418 18.8333L20.9357 19.4549" stroke="#008151" stroke-width="2" stroke-linecap="round"/>
<path d="M23.2689 15.7852V15.7852C22.2297 16.6314 21.4628 17.7648 21.0636 19.0441L20.9358 19.4538" stroke="#008151" stroke-width="2" stroke-linecap="round"/>
</svg>
